# xmcd
#
# Track frame offsets: 
#        150
#        19421
#        43939
#        66026
#        97038
#        114233
#        135533
#
# Disc length: 2045 seconds
#
# Revision: 0
# Processed by: cddbd v1.5.2PL0 Copyright (c) Steve Scherf et al.
# Submitted via: ExactAudioCopyFreeDBPlugin 1.0
#
DISCID=5d07fb07
DTITLE=Beck, Mike and the Bohemian Saints - Mike Beck and the Bohemian
DTITLE=Saints
DYEAR=2009
DGENRE=Americana
TTITLE0=Cheyana
TTITLE1=Don't Hurt My Heart
TTITLE2=Itty Bitty Girl
TTITLE3=She Run Away
TTITLE4=Summer of Love
TTITLE5=John Steinbeck Drank in Here
TTITLE6=Oildale
EXTD=
EXTT0=
EXTT1=
EXTT2=
EXTT3=
EXTT4=
EXTT5=
EXTT6=
PLAYORDER=
